<?xml version="1.0" encoding="UTF-8"?>
<svg id="Camada_2" data-name="Camada 2" xmlns="http://www.w3.org/2000/svg" viewBox="0 0 147.49 147.53">
  <defs>
    <style>
      .cls-1, .cls-2 {
        fill: #ff0546;
      }

      .cls-3 {
        fill: #0ce6f2;
      }

      .cls-2 {
        stroke: #0ce6f2;
        stroke-miterlimit: 10;
      }
    </style>
  </defs>
  <g id="Camada_2-2" data-name="Camada 2">
    <g>
      <path class="cls-1" d="M119.13,7.54h9.71c6.07,0,10.99,4.92,10.99,10.99v10.78c0,1.93,1.57,3.5,3.5,3.5s3.5-1.57,3.5-3.5v-10.78c0-9.94-8.05-17.99-17.99-17.99h-9.71c-1.93,0-3.5,1.57-3.5,3.5s1.57,3.5,3.5,3.5Z"/>
      <path class="cls-1" d="M4.09,32.81c1.93,0,3.5-1.57,3.5-3.5v-10.78c0-6.07,4.92-10.99,10.99-10.99h9.92c1.93,0,3.5-1.57,3.5-3.5s-1.57-3.5-3.5-3.5h-9.92C8.65.54.59,8.6.59,18.53v10.78c0,1.93,1.57,3.5,3.5,3.5Z"/>
      <path class="cls-1" d="M28.5,139.78h-9.92c-6.07,0-10.99-4.92-10.99-10.99v-12.94c0-1.93-1.57-3.5-3.5-3.5s-3.5,1.57-3.5,3.5v12.94c0,9.94,8.05,17.99,17.99,17.99h9.92c1.93,0,3.5-1.57,3.5-3.5s-1.57-3.5-3.5-3.5Z"/>
      <path class="cls-1" d="M143.33,112.35c-1.93,0-3.5,1.57-3.5,3.5v12.94c0,6.07-4.92,10.99-10.99,10.99h-9.71c-1.93,0-3.5,1.57-3.5,3.5s1.57,3.5,3.5,3.5h9.71c9.94,0,17.99-8.05,17.99-17.99v-12.94c0-1.93-1.57-3.5-3.5-3.5Z"/>
      <path class="cls-1" d="M146.87,73.09h-7.02c0-8.41-1.6-16.55-4.83-24.39-3.36-8.16-8.13-15.34-14.31-21.51-7.55-7.68-16.44-13.17-26.66-16.47-6.49-2.09-13.06-3.15-19.69-3.2V.62c0-.34-.28-.62-.62-.62s-.62.28-.62.62v6.9c-3.4.04-6.81.35-10.25.93-8.23,1.51-15.99,4.39-23.26,8.65-7.28,4.26-13.45,9.81-18.53,16.67h-.21c-1.37,1.79-2.54,3.57-3.5,5.35-3.02,4.81-5.32,9.92-6.9,15.34-1.58,5.42-2.51,10.91-2.78,16.47-.04.72-.06,1.44-.07,2.16H.62c-.35,0-.62.28-.62.62s.28.62.62.62h7.01c.02,4.41.48,8.8,1.41,13.16,1.16,5.49,2.98,10.77,5.46,15.85,2.61,5.22,5.83,9.95,9.67,14.2,3.84,4.25,8.13,7.96,12.87,11.12,4.73,3.16,9.85,5.7,15.34,7.62,5.49,1.92,11.12,3.09,16.88,3.5,1.3.08,2.58.12,3.87.13v6.99c0,.34.28.62.62.62s.62-.28.62-.62v-7c9.29-.13,18.29-2.18,26.99-6.19,10.29-4.73,18.8-11.63,25.53-20.69,4.12-5.63,7.31-11.77,9.57-18.42,2.24-6.58,3.37-13.34,3.39-20.26h7.01c.35,0,.62-.28.62-.62s-.28-.62-.62-.62ZM96.13,74.34h18.36c-.06,2.9-.41,5.78-1.08,8.63-1.17,4.94-3.19,9.54-6.07,13.79-1.28,1.81-2.69,3.51-4.23,5.09l-2.39-2.39c-.24-.24-.64-.24-.88,0-.24.24-.24.64,0,.88l2.37,2.37c-1.36,1.32-2.79,2.57-4.34,3.71-3.71,2.75-7.75,4.81-12.15,6.18-3.69,1.23-7.48,1.88-11.35,1.97v-18.42c0-.34-.28-.62-.62-.62s-.62.28-.62.62v18.43c-.47,0-.93,0-1.4-.03-4.81-.21-9.4-1.27-13.79-3.19-4.26-1.92-8.1-4.43-11.53-7.51-.31-.28-.59-.58-.9-.87,0,0,.02,0,.02-.01l2.44-2.44c.24-.24.24-.64,0-.88s-.64-.24-.88,0l-2.44,2.44s-.01.03-.02.04c-2.56-2.59-4.74-5.45-6.51-8.61-.26-.49-.5-1.01-.77-1.49-2.61-4.94-4.05-10.29-4.32-16.06-.03-.55-.03-1.09-.04-1.63h18.37c.35,0,.62-.28.62-.62s-.28-.62-.62-.62h-18.39c.08-6.35,1.6-12.39,4.59-18.11,1.88-3.62,4.2-6.83,6.92-9.67.03.06.07.13.12.18l2.44,2.44c.12.12.28.18.44.18s.32-.06.44-.18c.24-.24.24-.64,0-.88l-2.44-2.44c-.06-.06-.12-.1-.19-.13,2.02-1.98,4.24-3.77,6.68-5.35,4.8-3.02,10.02-4.94,15.64-5.76,1.85-.27,3.69-.4,5.51-.42v18.42c0,.34.28.62.62.62s.62-.28.62-.62v-18.41c3.28.07,6.52.55,9.7,1.45,5.49,1.37,10.43,3.84,14.82,7.41,1.09.89,2.14,1.82,3.13,2.8,0,0,0,0,0,0l-2.44,2.44c-.24.24-.24.64,0,.88.12.12.28.18.44.18s.32-.06.44-.18l2.43-2.43c2.61,2.71,4.85,5.73,6.7,9.07,2.19,3.84,3.71,8.3,4.53,13.38.23,1.72.35,3.44.37,5.15h-18.36c-.35,0-.62.28-.62.62s.28.62.62.62Z"/>
      <g>
        <path class="cls-3" d="M94.7,53.74c-2.11,2.82-4.57,5.83-6.82,8.56-1.41,1.63-3.37,3.9-4.64,5.61-2.45,2.92-5.48,4.84-9.35,5.95-.21.06-.41-.15-.35-.36.77-2.67,2.13-4.74,3.64-6.65,1.49-1.95,3.68-3.15,5.55-4.67,1.4-1.15,4.28-3.4,5.72-4.49,1.95-1.46,3.89-2.92,5.9-4.31.22-.16.52.14.35.36h0Z"/>
        <path class="cls-3" d="M63.23,63.79c1.66.75,3.37,1.7,4.94,2.6.93.59,2.21,1.38,3.21,1.83,1.85,1.05,2.5,3.14,2.49,5.28,0,.19-.15.34-.34.37-.93.13-1.67.05-2.35-.1-1.28-.28-2.44-.79-3.14-1.9-.33-.53-.64-1.08-1.01-1.56-.56-.72-1.65-2.22-2.16-2.98-.68-1.04-1.37-2.06-1.99-3.17-.13-.21.12-.48.34-.37h0Z"/>
      </g>
      <circle class="cls-2" cx="73.75" cy="73.76" r="2.23"/>
    </g>
  </g>
</svg>